<?xml version="1.0" standalone="no"?>
<!DOCTYPE svg PUBLIC "-//W3C//DTD SVG 20010904//EN"
 "http://www.w3.org/TR/2001/REC-SVG-20010904/DTD/svg10.dtd">
<svg version="1.0" xmlns="http://www.w3.org/2000/svg"
 width="512.000000pt" height="512.000000pt" viewBox="0 0 512.000000 512.000000"
 preserveAspectRatio="xMidYMid meet">

<g transform="translate(0.000000,512.000000) scale(0.100000,-0.100000)"
fill="#000000" stroke="none">
<path d="M220 4935 l-24 -26 25 -24 25 -25 29 30 c28 29 28 30 10 50 -24 26
-37 25 -65 -5z"/>
<path d="M352 4937 l-22 -23 28 -27 28 -27 24 25 23 25 -23 25 c-29 31 -31 31
-58 2z"/>
<path d="M1232 4944 c-27 -19 -52 -65 -52 -96 0 -36 37 -88 75 -103 76 -33
155 23 155 108 0 31 -7 46 -34 73 -28 28 -41 34 -78 34 -24 0 -54 -7 -66 -16z
m106 -57 c21 -17 14 -65 -13 -83 -44 -29 -94 9 -81 62 10 39 57 49 94 21z"/>
<path d="M2470 4935 l-24 -25 22 -22 22 -22 27 26 c26 27 26 28 8 48 -23 26
-27 25 -55 -5z"/>
<path d="M2595 4940 c-18 -20 -18 -21 8 -48 l27 -26 22 22 22 22 -24 25 c-28
30 -32 31 -55 5z"/>
<path d="M3720 4932 c-73 -74 -26 -196 76 -196 68 0 114 48 114 120 0 28 -8
44 -34 70 -29 29 -41 34 -81 34 -38 0 -52 -5 -75 -28z m118 -45 c6 -5 12 -22
12 -38 0 -56 -75 -76 -101 -27 -30 56 36 106 89 65z"/>
<path d="M4740 4935 l-24 -25 22 -22 22 -22 27 26 c26 27 26 28 8 48 -23 26
-27 25 -55 -5z"/>
<path d="M4865 4940 c-18 -20 -18 -21 8 -48 l27 -26 22 22 22 22 -24 25 c-28
30 -32 31 -55 5z"/>
<path d="M222 4807 l-22 -23 23 -22 c29 -27 39 -27 62 -2 18 20 18 21 -5 45
-29 31 -31 31 -58 2z"/>
<path d="M350 4805 c-23 -24 -23 -25 -5 -45 24 -26 37 -25 65 5 23 24 23 25 5
45 -24 26 -37 25 -65 -5z"/>
<path d="M2465 4810 c-18 -20 -18 -21 8 -48 l27 -26 22 22 22 22 -24 25 c-28
30 -32 31 -55 5z"/>
<path d="M2600 4805 l-24 -25 22 -22 22 -22 27 26 c26 27 26 28 8 48 -23 26
-27 25 -55 -5z"/>
<path d="M4735 4810 c-18 -20 -18 -21 8 -48 l27 -26 22 22 22 22 -24 25 c-28
30 -32 31 -55 5z"/>
<path d="M4870 4805 l-24 -25 22 -22 22 -22 27 26 c26 27 26 28 8 48 -23 26
-27 25 -55 -5z"/>
<path d="M850 4551 c-72 -22 -128 -71 -154 -133 -14 -32 -16 -114 -16 -601 l0
-563 25 -51 c27 -54 78 -97 136 -113 19 -6 152 -10 296 -10 l263 0 0 -80 0
-80 -55 0 c-110 0 -145 -41 -145 -170 l0 -80 441 0 441 0 -4 91 c-3 90 -3 91
-40 125 -34 31 -43 34 -98 34 l-60 0 0 80 0 80 261 0 c177 0 275 4 303 12 57
17 128 90 144 148 10 34 12 180 10 600 -3 553 -3 555 -25 597 -26 48 -76 89
-130 109 -31 10 -188 13 -803 13 -421 -1 -776 -4 -790 -8z m1594 -94 c78 -44
76 -32 76 -559 l0 -468 -880 0 -880 0 0 474 0 473 23 34 c48 73 4 69 857 69
l765 0 39 -23z m74 -1158 c-6 -59 -31 -97 -79 -121 -31 -17 -91 -18 -802 -18
-831 0 -794 -2 -846 54 -18 19 -26 41 -29 81 l-4 55 882 0 883 0 -5 -51z
m-720 -296 l3 -73 -161 0 -160 0 0 75 0 76 158 -3 157 -3 3 -72z m190 -175 c7
-7 12 -27 12 -45 l0 -33 -366 0 -366 0 6 32 c12 60 -2 58 365 58 249 0 340 -3
349 -12z"/>
<path d="M4317 4252 l-27 -28 23 -22 23 -22 27 28 27 28 -23 22 -23 22 -27
-28z"/>
<path d="M4442 4257 l-22 -23 28 -27 28 -27 22 23 22 23 -28 27 -28 27 -22
-23z"/>
<path d="M2780 4185 l0 -35 610 0 610 0 0 -170 0 -170 40 0 40 0 0 205 0 205
-650 0 -650 0 0 -35z"/>
<path d="M4312 4127 l-22 -23 28 -27 28 -27 22 23 22 23 -28 27 -28 27 -22
-23z"/>
<path d="M4447 4122 l-27 -28 23 -22 23 -22 27 28 27 28 -23 22 -23 22 -27
-28z"/>
<path d="M2992 3857 c-27 -29 -27 -39 -2 -62 20 -18 21 -18 45 5 30 28 31 41
7 63 -24 22 -24 21 -50 -6z"/>
<path d="M3112 3857 l-22 -23 30 -29 c29 -28 30 -28 50 -10 26 23 25 37 -3 63
-29 27 -29 27 -55 -1z"/>
<path d="M258 3794 c-76 -41 -74 -159 2 -199 77 -40 170 14 170 100 0 85 -97
140 -172 99z m94 -61 c36 -33 13 -93 -37 -93 -49 0 -72 55 -38 92 20 22 51 23
75 1z"/>
<path d="M2987 3732 c-23 -25 -21 -34 8 -62 24 -23 25 -23 45 -5 26 23 25 37
-3 63 -28 27 -30 27 -50 4z"/>
<path d="M3122 3727 c-27 -29 -27 -39 -2 -62 20 -18 21 -18 45 5 30 28 31 41
7 63 -24 22 -24 21 -50 -6z"/>
<path d="M3967 3710 c-124 -32 -221 -139 -242 -267 -5 -31 -11 -43 -24 -43
-43 0 -125 -34 -161 -66 -55 -50 -80 -107 -80 -182 0 -102 45 -177 135 -225
38 -21 53 -22 382 -25 225 -2 356 1 383 8 50 13 102 58 125 107 21 45 22 130
2 169 -20 38 -75 90 -109 103 -26 10 -26 11 -21 84 7 91 -12 157 -66 225 -72
91 -213 140 -324 112z m152 -85 c143 -50 200 -198 131 -343 -17 -35 -30 -65
-30 -66 0 -1 28 0 63 2 57 4 66 1 95 -23 66 -56 61 -151 -10 -195 -32 -20 -46
-20 -379 -18 l-346 3 -36 28 c-48 36 -69 79 -69 137 0 80 44 138 124 162 38
11 79 6 139 -17 15 -6 16 -1 7 42 -38 193 133 351 311 288z"/>
<path d="M4724 3611 c-59 -36 -70 -129 -21 -179 32 -31 94 -39 136 -17 31 16
61 65 61 101 0 34 -32 83 -65 98 -43 21 -73 20 -111 -3z m98 -58 c35 -31 10
-93 -38 -93 -48 0 -70 55 -37 92 20 22 51 23 75 1z"/>
<path d="M2807 3293 c-4 -3 -7 -73 -7 -155 l0 -148 -95 0 c-52 0 -95 -2 -95
-5 0 -15 354 -495 360 -488 5 4 85 116 178 248 l171 240 -100 3 -99 3 0 155 0
155 -37 -3 -38 -3 -3 -192 -2 -193 60 0 c33 0 60 -3 60 -6 0 -9 -192 -274
-198 -274 -4 1 -50 63 -104 138 l-96 137 59 3 59 3 0 194 0 195 -33 0 c-19 0
-37 -3 -40 -7z"/>
<path d="M4000 2610 l0 -170 40 0 40 0 0 170 0 170 -40 0 -40 0 0 -170z"/>
<path d="M227 2672 l-27 -28 23 -22 23 -22 27 28 27 28 -23 22 -23 22 -27 -28z"/>
<path d="M352 2677 l-22 -23 28 -27 28 -27 22 23 22 23 -28 27 -28 27 -22 -23z"/>
<path d="M716 2363 l-177 -248 95 -3 96 -3 0 -154 0 -155 40 0 40 0 0 195 0
194 -59 3 -59 3 90 125 c49 69 95 131 102 138 10 10 31 -13 110 -125 l97 -138
-58 -5 -58 -5 -3 -192 -2 -193 40 0 40 0 0 155 0 154 99 3 98 3 -139 195 c-77
107 -157 219 -177 248 l-38 53 -177 -248z"/>
<path d="M1600 2286 l0 -296 40 0 40 0 -2 293 -3 292 -37 3 -38 3 0 -295z"/>
<path d="M222 2547 l-22 -23 28 -27 28 -27 22 23 22 23 -28 27 -28 27 -22 -23z"/>
<path d="M357 2542 l-27 -28 23 -22 23 -22 27 28 27 28 -23 22 -23 22 -27 -28z"/>
<path d="M4740 2495 l-23 -25 23 -25 24 -25 23 22 c28 26 29 40 5 61 -24 22
-24 22 -52 -8z"/>
<path d="M4867 2502 c-22 -25 -21 -34 6 -60 l23 -22 24 25 23 25 -23 25 c-28
30 -32 30 -53 7z"/>
<path d="M868 2379 c-69 -93 -108 -149 -108 -154 0 -3 20 -5 45 -5 l45 0 0
-210 0 -210 45 0 45 0 0 210 0 210 46 0 45 0 -51 73 c-28 39 -59 83 -69 96
l-18 24 -25 -34z"/>
<path d="M4737 2372 c-22 -25 -21 -34 6 -60 l23 -22 24 25 23 25 -23 25 c-28
30 -32 30 -53 7z"/>
<path d="M4870 2365 l-23 -25 23 -25 24 -25 23 22 c28 26 29 40 5 61 -24 22
-24 22 -52 -8z"/>
<path d="M2676 2315 c-53 -19 -106 -63 -130 -111 -20 -38 -21 -55 -24 -597 -2
-388 1 -571 9 -600 14 -53 92 -131 146 -146 22 -7 146 -11 301 -11 l262 0 0
-80 0 -80 -60 0 c-55 0 -64 -3 -98 -34 -37 -34 -37 -35 -40 -125 l-4 -91 441
0 441 0 0 80 c0 129 -35 170 -145 170 l-55 0 0 80 0 80 263 0 c144 0 277 4
296 10 55 16 106 57 135 109 l26 49 0 566 c0 618 1 607 -58 669 -15 16 -45 39
-67 50 -40 22 -42 22 -820 24 -646 2 -787 0 -819 -12z m1604 -83 c19 -9 45
-32 57 -51 l23 -34 0 -476 0 -476 -877 2 -878 2 -3 468 c-3 533 -5 518 78 561
l44 22 761 0 c704 0 763 -1 795 -18z m80 -1161 c0 -39 -6 -56 -26 -81 -54 -63
-9 -60 -851 -60 -711 0 -771 1 -802 18 -48 24 -73 62 -79 121 l-5 51 882 0
881 0 0 -49z m-720 -296 l0 -75 -160 0 -160 0 0 68 c0 38 3 72 7 75 3 4 75 7
160 7 l153 0 0 -75z m189 -178 c6 -8 14 -28 17 -45 l7 -32 -367 0 -366 0 0 33
c0 18 5 38 12 45 18 18 681 17 697 -1z"/>
<path d="M2067 2292 l-27 -28 25 -24 26 -24 27 27 27 27 -26 25 -25 25 -27
-28z"/>
<path d="M2192 2297 l-22 -23 30 -29 30 -29 22 22 23 22 -31 30 -30 31 -22
-24z"/>
<path d="M2062 2167 l-22 -23 30 -29 30 -29 22 22 23 22 -31 30 -30 31 -22
-24z"/>
<path d="M2197 2162 l-27 -28 25 -24 26 -24 27 27 27 27 -26 25 -25 25 -27
-28z"/>
<path d="M1526 1853 c-2 -10 -10 -44 -17 -75 -10 -50 -17 -61 -47 -79 l-35
-20 -74 20 -73 19 -34 -61 c-65 -118 -65 -107 -2 -167 48 -45 56 -58 56 -89 0
-30 -9 -44 -56 -92 l-56 -56 53 -85 52 -85 71 23 c69 22 72 22 106 4 31 -16
37 -26 55 -91 l20 -74 40 -3 c22 -2 67 -1 101 3 l61 6 12 57 c19 87 18 86 57
107 34 18 38 18 99 2 35 -9 68 -17 73 -17 6 0 31 38 56 85 l47 86 -56 50 c-50
46 -55 55 -55 93 0 37 6 47 50 91 28 27 50 53 50 58 0 7 -71 129 -96 165 -1 2
-34 -7 -73 -19 l-71 -23 -37 21 c-27 15 -40 32 -46 55 -5 18 -13 50 -18 71
l-10 37 -99 0 c-85 0 -99 -2 -104 -17z m159 -127 c14 -50 22 -66 40 -70 12 -3
39 -17 60 -31 l38 -26 63 19 62 19 18 -33 18 -34 -44 -45 c-43 -44 -43 -45
-43 -115 l1 -70 48 -43 47 -43 -18 -30 c-11 -16 -20 -30 -21 -32 -1 -1 -28 5
-61 14 l-59 16 -49 -31 c-27 -17 -54 -31 -61 -31 -7 0 -15 -15 -19 -32 -22
-107 -23 -109 -63 -106 -36 3 -37 4 -51 64 -13 60 -16 63 -62 83 -26 12 -52
28 -58 35 -10 12 -23 11 -77 -6 -36 -11 -67 -18 -68 -16 -1 2 -10 16 -20 32
l-18 28 45 47 45 46 -1 71 c-2 72 -2 72 -46 111 -44 39 -45 40 -32 71 15 36
27 38 96 18 47 -15 49 -14 89 12 23 15 50 32 61 38 14 8 24 31 33 73 l14 61
38 0 38 0 17 -64z"/>
<path d="M1586 1570 c-34 -11 -82 -54 -102 -92 -33 -63 -5 -165 57 -208 38
-28 104 -36 152 -21 46 15 93 69 107 121 22 82 -32 176 -115 199 -46 13 -59
13 -99 1z m93 -85 c83 -42 49 -165 -46 -165 -80 0 -114 102 -52 154 35 30 58
32 98 11z"/>
<path d="M2140 1410 l0 -40 145 0 145 0 0 40 0 40 -145 0 -145 0 0 -40z"/>
<path d="M263 1185 c-106 -46 -65 -215 52 -215 119 0 158 171 50 216 -42 17
-61 17 -102 -1z m89 -62 c36 -33 13 -93 -37 -93 -49 0 -72 55 -38 92 20 22 51
23 75 1z"/>
<path d="M4772 1157 c-35 -20 -55 -56 -55 -99 0 -51 28 -89 79 -107 34 -12 44
-11 76 2 117 49 83 218 -44 217 -18 -1 -43 -6 -56 -13z m103 -71 c28 -43 -14
-97 -63 -81 -11 3 -24 17 -31 31 -17 37 8 74 49 74 20 0 35 -8 45 -24z"/>
<path d="M895 980 l-29 -30 22 -22 22 -22 25 24 c30 28 31 41 7 63 -17 16 -20
15 -47 -13z"/>
<path d="M1020 985 l-24 -26 27 -26 c26 -26 27 -26 47 -8 26 23 25 37 -3 63
l-23 22 -24 -25z"/>
<path d="M890 855 l-24 -26 27 -26 c26 -26 27 -26 47 -8 26 23 25 37 -3 63
l-23 22 -24 -25z"/>
<path d="M1022 857 c-27 -29 -27 -39 -2 -62 20 -18 21 -18 45 5 30 28 31 41 7
63 -24 22 -24 21 -50 -6z"/>
<path d="M1934 750 c-67 -27 -86 -125 -35 -182 26 -29 36 -33 79 -33 57 0 86
20 109 73 37 88 -61 179 -153 142z m93 -76 c15 -24 15 -29 2 -53 -27 -49 -101
-33 -101 22 0 59 66 80 99 31z"/>
<path d="M227 342 l-27 -28 25 -24 26 -24 27 27 27 27 -26 25 -25 25 -27 -28z"/>
<path d="M350 345 l-24 -26 27 -27 27 -27 25 26 25 25 -28 27 -28 27 -24 -25z"/>
<path d="M4740 335 l-24 -25 22 -22 22 -22 27 26 c26 27 26 28 8 48 -23 26
-27 25 -55 -5z"/>
<path d="M4865 340 c-18 -20 -18 -21 8 -48 l27 -26 22 22 22 22 -24 25 c-28
30 -32 31 -55 5z"/>
<path d="M220 215 l-24 -26 27 -27 27 -27 25 26 25 25 -28 27 -28 27 -24 -25z"/>
<path d="M357 212 l-27 -28 25 -24 26 -24 27 27 27 27 -26 25 -25 25 -27 -28z"/>
<path d="M4735 210 c-18 -20 -18 -21 8 -48 l27 -26 22 22 22 22 -24 25 c-28
30 -32 31 -55 5z"/>
<path d="M4870 205 l-24 -25 22 -22 22 -22 27 26 c26 27 26 28 8 48 -23 26
-27 25 -55 -5z"/>
</g>
</svg>
